<svg xmlns="http://www.w3.org/2000/svg" viewBox="0 0 836 245.69"><title>medicalwale_logo</title><path d="M161,94.8c-9.5-1-24.82,5.66-34.22,13.69.87-.75-14.88,13.57-31.49-1.37C88.67,101.19,66.64,85,33.66,103c-10,5.45-30.58,18.92-26,68.45C9.82,195,37.92,274.94,84.31,285.08c6.07,1.33,22.28-5.66,27.38-5.48s7,2.5,10.84,3.47c6.26,1.59,18.69,7.45,39.64-8.78.06,0,.23-.22.16-.17,26.49-22.77,48-63.83,53.39-102.67C223.37,116.53,195.78,98.45,161,94.8Z" transform="translate(-7 -39.73)" fill="#fe1f20"/><path d="M159.94,39.79c-4.45-.89-31.06,9-37.53,18.55-1.86,2.74-7.78,7.12-11.66,40.74C110.53,101,145,89,151.57,75.15c.8-1.69,4.43-3.71,7.78-31.91C159.76,39.83,160.47,39.89,159.94,39.79Z" transform="translate(-7 -39.73)" fill="#049341"/><path d="M141.76,198.3c0,16.87,0,33.75,0,50.63,0,12.41-5.5,17.81-18,17.91-8.2.06-16.42.16-24.62,0-11.28-.25-16.79-5.72-16.82-17q-.15-52,0-104c0-11.65,5.55-17,17.31-17.21,8.44-.13,16.87-.15,25.32,0,11.16.21,16.73,5.82,16.79,17C141.83,163.18,141.76,180.74,141.76,198.3Z" transform="translate(-7 -39.73)" fill="#0067de" fill-rule="evenodd"/><path d="M111.5,225.83c-16.88,0-33.75.12-50.63.11-12.41,0-17.83-5.45-18-17.94-.08-8.21-.19-16.42,0-24.62.22-11.29,5.67-16.81,17-16.87q52-.29,104-.27c11.66,0,17,5.51,17.26,17.27.16,8.44.2,16.88.07,25.31-.18,11.17-5.78,16.76-17,16.85C146.61,225.81,129.05,225.78,111.5,225.83Z" transform="translate(-7 -39.73)" fill="#0067de" fill-rule="evenodd"/><path d="M167.54,207.61c-.34-7.27-.26-14.57,0-21.86.11-3.54-1-4.7-4.62-4.69q-17.56.06-35.14.07c0-11.1,0-22.2.14-33.3.07-4.52-1.28-5.88-5.73-5.67-7.27.35-14.57.26-21.85,0-3.54-.11-4.7,1-4.69,4.62q.06,17.16.07,34.31-17.28,0-34.57-.07c-3.61,0-4.71,1.19-4.61,4.71.22,7.28.32,14.58,0,21.85-.22,4.47,1.19,5.78,5.68,5.7,11.17-.17,22.35-.15,33.52-.13q0,17.7-.07,35.41c0,3.62,1.19,4.71,4.71,4.61,7.28-.23,14.59-.32,21.86,0,4.47.22,5.77-1.19,5.7-5.68-.18-11.45-.16-22.9-.13-34.36,11.38,0,22.76,0,34.13.13C166.39,213.4,167.76,212.06,167.54,207.61Z" transform="translate(-7 -39.73)" fill="#fff"/><path d="M278.07,165.67c1.49,4.48,3.09,8.85,4.48,13.43.64,2.14,1.17,4.27,1.71,6.4,1.06-3.62,2.13-7.14,3.2-10.76,1.28-3.84,2.66-7.68,3.94-11.53l10.45-29.64h16.75l10.66,75.29H313.37l-4.48-36.27c-.32-3.52-.74-7-1-10.55-.11-2.56-.11-5.12-.11-7.68-1.81,6.4-3.84,12.8-6,19.09l-12.47,35.41H279.14l-13.65-37.75a96.06,96.06,0,0,1-3.09-9.39c-.75-2.24-1.28-4.48-1.92-6.83,0,2.88-.1,5.65-.21,8.53-.32,3.63-.75,7.26-1.17,10.88l-3.95,34.56H239.46L250,133.57h16.85Z" transform="translate(-7 -39.73)" fill="#049341"/><path d="M349.62,188.81a14.8,14.8,0,0,0,1.49,4.69,10.2,10.2,0,0,0,9.17,5.34c5.86,0,8.63-4.58,9.49-6L382,198.73a26.17,26.17,0,0,1-3.09,3.94,25.81,25.81,0,0,1-19,7.68c-11.94,0-18.45-6.61-21-10.45a26.43,26.43,0,0,1-3.84-14.28,25.93,25.93,0,0,1,2.67-12,21.29,21.29,0,0,1,9.17-9.92,25.93,25.93,0,0,1,12.48-3.2,28.8,28.8,0,0,1,7.25,1A22.07,22.07,0,0,1,382.46,177a44.67,44.67,0,0,1,.85,11.84ZM368.71,180c-.21-1.27-1.28-5.86-5.22-7.89A9.4,9.4,0,0,0,359,171a9,9,0,0,0-8.21,5.23c-.32.85-.63,1.81-1.17,3.73Z" transform="translate(-7 -39.73)" fill="#049341"/><path d="M443,129.41v79.45H428v-6a24.44,24.44,0,0,1-4.26,3.74,23,23,0,0,1-12.16,3.4,20,20,0,0,1-18.66-11.52,29.44,29.44,0,0,1-2.66-12.8c0-2.77.21-10.67,5.76-17.06a22.29,22.29,0,0,1,16.74-7.36c8.11,0,12.8,4.16,15.14,6.19V129.41Zm-36.9,56.41c0,5.76,3,8.75,4.91,10a10.59,10.59,0,0,0,5.87,1.71,11,11,0,0,0,5.23-1.28c4.15-2.14,6.18-6.61,6.18-11.09a11.65,11.65,0,0,0-2.45-7.46,10.69,10.69,0,0,0-8.53-4.06C410.51,173.66,406.13,179.32,406.13,185.82Z" transform="translate(-7 -39.73)" fill="#049341"/><path d="M453.16,144.77a9.13,9.13,0,0,1,9.07-9.07,9.3,9.3,0,0,1,9.06,9.18,9.07,9.07,0,0,1-18.13-.1Zm16.64,17.69v46.4H454.54v-46.4Z" transform="translate(-7 -39.73)" fill="#049341"/><path d="M517.68,177.08a24.61,24.61,0,0,0-10.77-2.88c-6.82,0-12.26,4.16-12.26,11.42a13,13,0,0,0,.85,4.47,11.59,11.59,0,0,0,11.3,7.68c5.54,0,9.39-3,11-4.06l-.1,13.65a36.59,36.59,0,0,1-14.19,3c-2.56,0-10.24-.21-16.42-5.54-3-2.56-8.21-8.53-8.21-18.89a24.68,24.68,0,0,1,5-15.35c2.88-3.95,8.85-9.7,20.69-9.7a36.92,36.92,0,0,1,13.12,2.55Z" transform="translate(-7 -39.73)" fill="#049341"/><path d="M563.31,162.36h15v46.5H563.42v-4.59a37,37,0,0,1-3.19,2.56,23.57,23.57,0,0,1-12.8,3.73,20.82,20.82,0,0,1-9-1.92c-8.85-4.05-12.79-13.65-12.79-22.83,0-3.19.32-12.16,7.25-19,4.16-4.05,9.06-5.66,14.71-5.66A18.9,18.9,0,0,1,559.69,165a24.22,24.22,0,0,1,3.63,3.73Zm-19,15.25a11.93,11.93,0,0,0-2.77,8.21c0,6.29,3.09,9.49,5.33,10.89a11.37,11.37,0,0,0,6.3,1.81c6.93,0,11.09-5.76,11.09-12.16,0-6.72-4.59-12.48-11.63-12.48A10.91,10.91,0,0,0,544.33,177.61Z" transform="translate(-7 -39.73)" fill="#fe1f20"/><path d="M605.22,129.3v79.56H590V129.3Z" transform="translate(-7 -39.73)" fill="#049341"/><path d="M626.86,162.57l7.68,18.55c.75,1.82,1.39,3.52,2,5.33.75,2.14,1.49,4.37,2.14,6.51,1-3.74,2.13-7.35,3.31-11.09l6.71-19.3H664.3l6.82,20.9c.53,1.5,1.06,3,1.49,4.48s.86,3.2,1.17,4.79c1.28-3.52,2.57-7.14,3.94-10.66L686,162.57h15.37l-21,46.29H666.22l-6.82-19c-.64-1.92-1.28-3.84-1.82-5.75a51,51,0,0,1-1.27-5.44c-.86,4.27-1.28,5.54-3.73,12.48l-6.08,17.7H631.56l-20.37-46.29Z" transform="translate(-7 -39.73)" fill="#049341"/><path d="M741,162.36h15v46.5H741.07v-4.59a35.94,35.94,0,0,1-3.2,2.56,23.55,23.55,0,0,1-12.8,3.73,20.84,20.84,0,0,1-9-1.92c-8.85-4.05-12.79-13.65-12.79-22.83,0-3.19.32-12.16,7.24-19,4.17-4.05,9.07-5.66,14.72-5.66a18.9,18.9,0,0,1,12,3.84,24.44,24.44,0,0,1,3.63,3.73Zm-19,15.25a11.92,11.92,0,0,0-2.77,8.21c0,6.29,3.1,9.49,5.34,10.89a11.28,11.28,0,0,0,6.28,1.81c6.94,0,11.1-5.76,11.1-12.16,0-6.72-4.59-12.48-11.62-12.48A10.9,10.9,0,0,0,722,177.61Z" transform="translate(-7 -39.73)" fill="#049341"/><path d="M782.87,129.3v79.56H767.62V129.3Z" transform="translate(-7 -39.73)" fill="#049341"/><path d="M810.69,193.68a15,15,0,0,0,3.89,3,10.22,10.22,0,0,0,10.58-.82c4.83-3.34,4.49-8.69,4.41-10.31L843,183.41a25,25,0,0,1-11.55,22.11c-9.82,6.79-18.94,5-23.22,3.34a26.5,26.5,0,0,1-11.29-9.58,26.1,26.1,0,0,1-4.59-11.35,21.31,21.31,0,0,1,1.91-13.37,26,26,0,0,1,8.45-9.73,28.69,28.69,0,0,1,6.51-3.33A22,22,0,0,1,831,165.27c2.65,2.32,4.85,5.33,7.44,9.25Zm10.67-18.13c-.9-.93-4.39-4.1-8.79-3.52a9.43,9.43,0,0,0-4.29,1.67,9,9,0,0,0-3.79,9c.22.88.51,1.86,1.16,3.74Z" transform="translate(-7 -39.73)" fill="#049341"/><path d="M629.82,265.66a9.11,9.11,0,1,1,2.67,6.5A9.47,9.47,0,0,1,629.82,265.66Z" transform="translate(-7 -39.73)" fill="#0067de"/><path d="M694.56,241a24.45,24.45,0,0,0-10.77-2.89c-6.83,0-12.26,4.17-12.26,11.42a13.06,13.06,0,0,0,.85,4.49,11.59,11.59,0,0,0,11.3,7.67c5.54,0,9.38-3,11-4.05l-.11,13.65a36.67,36.67,0,0,1-14.18,3c-2.56,0-10.24-.21-16.42-5.54-3-2.56-8.22-8.53-8.22-18.87a24.69,24.69,0,0,1,5-15.36c2.88-3.95,8.86-9.71,20.69-9.71a36.72,36.72,0,0,1,13.12,2.56Z" transform="translate(-7 -39.73)" fill="#0067de"/><path d="M750.33,234.73a25.16,25.16,0,0,1,2.56,25.17c-4.27,9.49-13.55,14.61-23.79,14.61a29.94,29.94,0,0,1-14-3.42,26.26,26.26,0,0,1-4.69-3.41,23.37,23.37,0,0,1-7.79-18.23c0-11.84,6.61-17.71,10.45-20.27a26.5,26.5,0,0,1,15.14-4.59C740.63,224.5,747.45,230.89,750.33,234.73Zm-26.56,4.48c-3.94,2.14-5.87,6.19-5.87,10.56a11.67,11.67,0,0,0,1,4.9,10.8,10.8,0,0,0,10,6.61c6.5,0,10.76-5.54,10.76-11.73s-4.26-11.84-10.87-11.73A12.25,12.25,0,0,0,723.77,239.21Z" transform="translate(-7 -39.73)" fill="#0067de"/><path d="M842.26,272.8H827.1V247c0-2,.44-8.86-7.24-8.86a8.56,8.56,0,0,0-7.26,3.42c-1.49,2.13-1.6,4.59-1.6,7V272.8H795.75V247.64c0-3.2,0-6.61-3.08-8.64a8.63,8.63,0,0,0-4.07-1.06,8.92,8.92,0,0,0-4.79,1.38c-4.47,2.77-4.05,8-4.05,9.49v24H764.62V226.2H780v6.93c2-3.1,5.54-8,14.61-8,2.24,0,8,.21,12.26,5.11a19.73,19.73,0,0,1,2.46,3.62c.75-.84,1.38-1.7,2.23-2.55a17.46,17.46,0,0,1,13.88-6.08c10.12,0,14.5,5.76,15.78,9.71.75,2.13,1,4,1.07,8.42Z" transform="translate(-7 -39.73)" fill="#0067de"/></svg>